<?xml version="1.0" encoding="utf-8"?>
<!-- Generator: Adobe Illustrator 15.0.0, SVG Export Plug-In . SVG Version: 6.00 Build 0)  -->
<!DOCTYPE svg PUBLIC "-//W3C//DTD SVG 1.1//EN" "http://www.w3.org/Graphics/SVG/1.1/DTD/svg11.dtd">
<svg version="1.1" id="Warstwa_1" xmlns="http://www.w3.org/2000/svg" xmlns:xlink="http://www.w3.org/1999/xlink" x="0px" y="0px"
	 width="7.148px" height="7.199px" viewBox="1.269 0 7.148 7.199" enable-background="new 1.269 0 7.148 7.199"
	 xml:space="preserve">
<rect x="2.469" y="5.4" opacity="0.1" fill="#FFFFFF" enable-background="new    " width="0.6" height="0.6"/>
<rect x="1.869" y="6" opacity="0.1" fill="#FFFFFF" enable-background="new    " width="0.6" height="0.6"/>
<rect x="1.269" y="6.599" opacity="0.1" fill="#FFFFFF" enable-background="new    " width="0.6" height="0.6"/>
<rect x="0.669" y="7.199" opacity="0.1" fill="#FFFFFF" enable-background="new    " width="0.6" height="0.601"/>
<rect x="0.069" y="7.799" opacity="0.1" fill="#FFFFFF" enable-background="new    " width="0.6" height="0.601"/>
<rect x="-0.531" y="8.4" opacity="0.1" fill="#FFFFFF" enable-background="new    " width="0.6" height="0.6"/>
<rect x="3.069" y="4.799" opacity="0.1" fill="#FFFFFF" enable-background="new    " width="0.6" height="0.601"/>
<rect x="3.669" y="4.199" opacity="0.1" fill="#FFFFFF" enable-background="new    " width="0.6" height="0.601"/>
<rect x="4.269" y="3.599" opacity="0.1" fill="#FFFFFF" enable-background="new    " width="0.6" height="0.6"/>
<rect x="4.869" y="2.999" opacity="0.1" fill="#FFFFFF" enable-background="new    " width="0.601" height="0.6"/>
<rect x="5.469" y="2.399" opacity="0.1" fill="#FFFFFF" enable-background="new    " width="0.6" height="0.599"/>
<rect x="6.069" y="1.8" opacity="0.1" fill="#FFFFFF" enable-background="new    " width="0.601" height="0.599"/>
<rect x="6.669" y="1.2" opacity="0.1" fill="#FFFFFF" enable-background="new    " width="0.6" height="0.598"/>
<rect x="7.269" y="0.6" opacity="0.1" fill="#FFFFFF" enable-background="new    " width="0.6" height="0.598"/>
<rect x="7.869" opacity="0.1" fill="#FFFFFF" enable-background="new    " width="0.601" height="0.598"/>
<rect x="-1.131" y="9" opacity="0.1" fill="#FFFFFF" enable-background="new    " width="0.6" height="0.6"/>
<rect x="-1.731" y="9.599" opacity="0.1" fill="#FFFFFF" enable-background="new    " width="0.6" height="0.6"/>
<rect x="-2.331" y="10.199" opacity="0.1" fill="#FFFFFF" enable-background="new    " width="0.6" height="0.601"/>
<rect x="-2.931" y="10.799" opacity="0.1" fill="#FFFFFF" enable-background="new    " width="0.6" height="0.601"/>
<rect x="-3.531" y="11.4" opacity="0.1" fill="#FFFFFF" enable-background="new    " width="0.6" height="0.6"/>
</svg>
