<?xml version="1.0" encoding="utf-8"?>
<!-- Generator: Adobe Illustrator 15.0.0, SVG Export Plug-In . SVG Version: 6.00 Build 0)  -->
<!DOCTYPE svg PUBLIC "-//W3C//DTD SVG 1.1//EN" "http://www.w3.org/Graphics/SVG/1.1/DTD/svg11.dtd">
<svg version="1.1" id="Warstwa_1" xmlns="http://www.w3.org/2000/svg" xmlns:xlink="http://www.w3.org/1999/xlink" x="0px" y="0px"
	 width="8.417px" height="8.4px" viewBox="0 0.068 8.417 8.4" enable-background="new 0 0.068 8.417 8.4" xml:space="preserve">
<rect x="6" y="1.868" opacity="0.08" enable-background="new    " width="0.6" height="0.6"/>
<rect x="5.4" y="2.468" opacity="0.08" enable-background="new    " width="0.6" height="0.6"/>
<rect x="4.8" y="3.068" opacity="0.08" enable-background="new    " width="0.6" height="0.6"/>
<rect x="4.2" y="3.668" opacity="0.08" enable-background="new    " width="0.601" height="0.6"/>
<rect x="3.6" y="4.268" opacity="0.08" enable-background="new    " width="0.6" height="0.601"/>
<rect x="3" y="4.869" opacity="0.08" enable-background="new    " width="0.6" height="0.6"/>
<rect x="6.599" y="1.268" opacity="0.08" enable-background="new    " width="0.602" height="0.6"/>
<rect x="7.201" y="0.668" opacity="0.08" enable-background="new    " width="0.6" height="0.6"/>
<rect x="7.8" y="0.068" opacity="0.08" enable-background="new    " width="0.6" height="0.6"/>
<rect x="8.4" y="-0.532" opacity="0.08" enable-background="new    " width="0.6" height="0.6"/>
<rect x="9" y="-1.132" opacity="0.08" enable-background="new    " width="0.6" height="0.599"/>
<rect x="9.599" y="-1.731" opacity="0.08" enable-background="new    " width="0.602" height="0.599"/>
<rect x="10.201" y="-2.331" opacity="0.08" enable-background="new    " width="0.6" height="0.598"/>
<rect x="10.8" y="-2.931" opacity="0.08" enable-background="new    " width="0.6" height="0.598"/>
<rect x="11.4" y="-3.531" opacity="0.08" enable-background="new    " width="0.6" height="0.598"/>
<rect x="2.4" y="5.468" opacity="0.08" enable-background="new    " width="0.6" height="0.6"/>
<rect x="1.8" y="6.068" opacity="0.08" enable-background="new    " width="0.6" height="0.6"/>
<rect x="1.2" y="6.667" opacity="0.08" enable-background="new    " width="0.6" height="0.601"/>
<rect x="0.6" y="7.268" opacity="0.08" enable-background="new    " width="0.6" height="0.601"/>
<rect x="0" y="7.869" opacity="0.08" enable-background="new    " width="0.6" height="0.6"/>
</svg>
